<?xml version="1.0" encoding="UTF-8"?>
<svg id="Layer_2" data-name="Layer 2" xmlns="http://www.w3.org/2000/svg" xmlns:xlink="http://www.w3.org/1999/xlink" viewBox="0 0 187.41 141.76">
  <defs>
    <style>
      .cls-1, .cls-2, .cls-3 {
        fill: none;
      }

      .cls-4 {
        clip-path: url(#clippath);
      }

      .cls-2 {
        stroke-dasharray: 0 0 2 2;
      }

      .cls-2, .cls-3 {
        stroke: #231f20;
        stroke-width: .5px;
      }

      .cls-5 {
        fill: #fff;
      }

      .cls-6 {
        fill: #bfddef;
      }
    </style>
    <clipPath id="clippath">
      <rect class="cls-1" width="187.41" height="141.76"/>
    </clipPath>
  </defs>
  <g id="Layer_1-2" data-name="Layer 1">
    <polygon class="cls-3" points="108.8 51.97 108.8 103.14 78.42 140.72 78.42 89.55 108.8 51.97"/>
    <polyline class="cls-6" points="31.24 51.97 108.8 51.97 78.42 89.55 .86 89.55 31.24 51.97"/>
    <g class="cls-4">
      <polygon class="cls-3" points="31.24 51.97 108.8 51.97 78.42 89.55 .86 89.55 31.24 51.97"/>
    </g>
    <polyline class="cls-5" points="44.83 16.79 108.8 51.97 78.42 89.55 14.45 54.37 44.83 16.79"/>
    <polygon class="cls-3" points="44.83 16.79 108.8 51.97 78.42 89.55 14.45 54.37 44.83 16.79"/>
    <polyline class="cls-5" points="108.8 51.97 157.37 78.65 126.99 116.23 78.42 89.55 108.8 51.97"/>
    <polygon class="cls-3" points="108.8 51.97 157.37 78.65 126.99 116.23 78.42 89.55 108.8 51.97"/>
    <polyline class="cls-5" points="78.42 89.55 78.42 38.38 108.8 .8 108.8 51.97"/>
    <polyline class="cls-3" points="78.42 89.55 78.42 38.38 108.8 .8 108.8 51.97"/>
    <polyline class="cls-6" points="108.8 51.97 186.36 51.97 155.98 89.55 78.42 89.55"/>
    <polyline class="cls-3" points="108.8 51.97 186.36 51.97 155.98 89.55 78.42 89.55"/>
    <line class="cls-2" x1="78.42" y1="89.55" x2="108.8" y2="51.97"/>
  </g>
</svg>