<?xml version="1.0" encoding="UTF-8"?>
<svg id="Layer_2" data-name="Layer 2" xmlns="http://www.w3.org/2000/svg" viewBox="0 0 195.23 100.93">
  <defs>
    <style>
      .cls-1 {
        stroke-dasharray: 0 0 2 2;
      }

      .cls-1, .cls-2 {
        fill: none;
        stroke: #231f20;
        stroke-width: .5px;
      }

      .cls-3 {
        fill: #fff;
      }

      .cls-4 {
        fill: #bfddef;
      }
    </style>
  </defs>
  <g id="Layer_1-2" data-name="Layer 1">
    <polyline class="cls-4" points="61.33 51.46 18.96 82.25 1.97 82.25 44.34 51.46 61.33 51.46"/>
    <polygon class="cls-2" points="61.33 51.46 18.96 82.25 1.97 82.25 44.34 51.46 61.33 51.46"/>
    <polyline class="cls-3" points="61.13 35.07 18.76 65.85 18.76 100.44 61.13 69.65 61.13 35.07"/>
    <polygon class="cls-2" points="61.13 35.07 18.76 65.85 18.76 100.44 61.13 69.65 61.13 35.07"/>
    <polyline class="cls-4" points="61.33 51.46 119.7 51.46 77.32 82.25 18.96 82.25"/>
    <polyline class="cls-2" points="61.33 51.46 119.7 51.46 77.32 82.25 18.96 82.25"/>
    <polyline class="cls-3" points="164.88 64.26 122.5 95.04 .56 60.66 42.94 29.87 164.88 64.26"/>
    <polygon class="cls-2" points="164.88 64.26 122.5 95.04 .56 60.66 42.94 29.87 164.88 64.26"/>
    <polyline class="cls-3" points="61.13 35.07 61.13 .49 18.76 31.27 18.76 65.85"/>
    <polyline class="cls-2" points="61.13 35.07 61.13 .49 18.76 31.27 18.76 65.85"/>
    <line class="cls-3" x1="61.13" y1="35.07" x2="18.76" y2="65.85"/>
    <line class="cls-1" x1="61.13" y1="35.07" x2="18.76" y2="65.85"/>
    <polyline class="cls-4" points="119.7 51.46 194.46 51.46 152.08 82.25 77.32 82.25"/>
    <polyline class="cls-2" points="119.7 51.46 194.46 51.46 152.08 82.25 77.32 82.25"/>
    <line class="cls-3" x1="119.7" y1="51.46" x2="77.32" y2="82.25"/>
    <line class="cls-1" x1="119.7" y1="51.46" x2="77.32" y2="82.25"/>
    <line class="cls-3" x1="35.15" y1="70.65" x2="19.16" y2="82.05"/>
    <line class="cls-1" x1="35.15" y1="70.65" x2="19.16" y2="82.05"/>
  </g>
</svg>